PathFileType	4	(X/Y/Z)	OpenSim_Sub09_EMGStiffKnee_Accel.trc
DataRate	CameraRate	NumFrames	NumMarkers	Units	OrigDataRate	OrigDataStartFrame	OrigNumFrames
100	100	28	8	m	100	1	7584
Frame#	Time	torso_imu_offset_imu	pelvis_imu_offset_imu	tibia_r_imu_offset_imu	femur_r_imu_offset_imu	tibia_l_imu_offset_imu	femur_l_imu_offset_imu	toes_r_imu_offset_imu	toes_l_imu_offset_imu
				X1	Y1	Z1	X2	Y2	Z2	X3	Y3	Z3	X4	Y4	Z4	X5	Y5	Z5	X6	Y6	Z6	X7	Y7	Z7	X8		Y8	Z8	

1	0	9.09478866	0.06611245	6.27443497	9.75295404	-0.33432310	1.87825058	9.76792449	1.91595934	1.61056819	9.72228177	-0.38916884	1.05026539	9.70211708	-1.23941445	1.56697309	9.76091141	1.31743262	-0.02462178	5.21149445	-1.64833865	8.35463863	5.09760735	2.34730028	10.79020276
2	0.01000000	9.15560986	0.10708526	6.30805579	9.73765899	-0.35766337	1.87731892	9.77216644	1.97874562	1.63369209	9.75624411	-0.42573109	1.02014827	9.71619570	-1.21363785	1.53620466	9.67625063	1.36150244	-0.10608004	5.21959656	-1.67432049	8.34824069	5.10206526	2.35975910	10.77407495
3	0.02000000	9.16669050	0.06464774	6.27459055	9.73267139	-0.38423921	1.86336119	9.76103438	1.96659124	1.61228782	9.77369454	-0.39911542	1.07868821	9.65217052	-1.14798412	1.49818298	9.66214253	1.34625068	-0.07785936	5.25460694	-1.67479000	8.33868502	5.07678118	2.39535511	10.76562294
4	0.03000000	9.12685512	0.07909503	6.27923837	9.73677484	-0.34335883	1.83935741	9.65795789	1.91235690	1.58771974	9.75202857	-0.37643664	1.13850300	9.59401036	-1.08440826	1.52764129	9.73643736	1.32237544	-0.00790771	5.25024888	-1.68660571	8.32310300	5.08812434	2.40060699	10.80427522
5	0.04000000	9.10991434	0.05625745	6.29928327	9.70447719	-0.37855902	1.85325061	9.57618974	1.94455942	1.57494329	9.77300243	-0.39054637	1.17549859	9.57457977	-1.05111095	1.56704474	9.79023282	1.32445155	-0.04384769	5.27633887	-1.66173444	8.29169556	5.08884559	2.36465437	10.81059520
6	0.05000000	9.13092990	0.03289561	6.31446126	9.68911025	-0.32751815	1.86294611	9.61829655	2.01077449	1.56935137	9.72905625	-0.38479839	1.10516793	9.67519241	-1.02730128	1.59044634	9.84103683	1.30092006	0.05327247	5.29488485	-1.61442844	8.34837139	5.06727263	2.37720867	10.78977433
7	0.06000000	9.12924890	0.03166398	6.32232733	9.70306971	-0.37307526	1.84518556	9.62245953	2.08830698	1.59297641	9.71550398	-0.33687484	1.11490855	9.67906239	-1.04623418	1.52951258	9.81269943	1.35194751	0.10937490	5.27474084	-1.63726682	8.34975596	5.06266783	2.38265025	10.78515981
8	0.07000000	9.15230291	0.04671209	6.28579352	9.70314575	-0.35778584	1.85242129	9.64863223	2.14336941	1.60887838	9.73336008	-0.27883543	1.11159767	9.67008196	-1.07891425	1.58481765	9.78156250	1.37102465	-0.04963269	5.28604965	-1.62522618	8.33586127	5.07217684	2.33064816	10.84253257
9	0.08000000	9.18157375	0.02010943	6.33047324	9.77334507	-0.35908658	1.83409504	9.65024974	2.10335245	1.65129196	9.73376686	-0.34828558	1.10350893	9.75021601	-1.09942103	1.60379866	9.68528696	1.36600180	-0.30316921	5.29022141	-1.62006040	8.33323163	5.07446594	2.33959865	10.83416745
10	0.09000000	9.16954233	0.06979688	6.34569694	9.75538176	-0.35110518	1.91442483	9.62599661	2.05924154	1.62675690	9.72880351	-0.36331600	1.03317362	9.69583287	-1.12070934	1.62869771	9.65257737	1.32094036	-0.59161890	5.24350188	-1.63344359	8.35939676	5.08277349	2.37794720	10.79848250
11	0.10000000	9.19580778	0.02874087	6.35402105	9.78377297	-0.33782538	1.88869156	9.69789311	1.97468848	1.65904412	9.75993893	-0.34615556	1.03434170	9.64962917	-1.10025856	1.57439492	9.57450942	1.37022281	-0.69277732	5.22201118	-1.62742466	8.30291316	5.05880720	2.37412848	10.79296100
12	0.11000000	9.15815820	0.06324904	6.40355176	9.78809870	-0.28261421	1.82775241	9.74579528	1.88949289	1.71411120	9.75390979	-0.35812414	1.08989592	9.61602927	-1.04944605	1.47605238	9.67072325	1.40373668	-0.58199404	5.26388709	-1.68369971	8.32684345	5.05920256	2.46489499	10.77430206
13	0.12000000	9.15319894	0.04805352	6.37886488	9.77824180	-0.24598413	1.86360081	9.77733401	1.83417654	1.67363287	9.80277335	-0.30198961	1.09088669	9.58825257	-1.03058860	1.42181942	9.77385062	1.26707980	-0.38517194	5.24781964	-1.67152934	8.32708558	5.08000177	2.39928039	10.78457511
14	0.13000000	9.12264635	0.07419355	6.33066916	9.77556007	-0.20783134	1.80327575	9.71394949	1.76679169	1.58604820	9.78070594	-0.21768638	1.13413447	9.62611502	-1.08115840	1.39458952	9.76722586	1.20173798	-0.37375615	5.26484092	-1.68466566	8.32599811	5.09286640	2.45021256	10.72912441
15	0.14000000	9.12760216	0.05169077	6.36542015	9.76009060	-0.21511507	1.80648073	9.63618370	1.82351146	1.61885299	9.80379246	-0.22269096	1.14588791	9.68628085	-1.24021493	1.44119019	9.68031751	1.14123307	-0.50369090	5.26039013	-1.63320865	8.38433467	5.08960471	2.32047584	10.83037431
16	0.15000000	9.10039398	0.05557953	6.32674366	9.76465749	-0.19205430	1.81458117	9.64082884	1.89748928	1.69010228	9.73971396	-0.19291657	1.12673596	9.63349126	-1.60178578	1.42840300	9.53124643	1.19300055	-0.53543785	5.29591036	-1.60637188	8.31325919	5.08847115	2.33899328	10.84391175
17	0.16000000	9.13468027	0.01642523	6.31486205	9.74493615	-0.25703846	1.82935453	9.60649624	2.02687029	1.65821095	9.74779067	-0.21883005	1.12627439	9.62225604	-1.80039297	1.46892890	9.57027005	1.20582439	-0.69600687	5.26209448	-1.66393487	8.28876378	5.09118417	2.34737211	10.81105077
18	0.17000000	9.15181538	0.04111842	6.33979633	9.76772600	-0.25472703	1.84834574	9.59847489	2.13455651	1.73362432	9.74012977	-0.24029672	1.12442611	9.59200174	-1.74171335	1.45006585	9.72678338	1.20370426	-0.69686717	5.25140388	-1.60908385	8.34292739	5.12560871	2.34116267	10.77926895
19	0.18000000	9.12036329	0.01581751	6.34191080	9.73707644	-0.26322875	1.87673678	9.63081845	2.18750063	1.76767317	9.77074153	-0.29348011	1.16927920	9.51824149	-1.48438483	1.50029775	9.74276977	1.28034864	-0.71424085	5.28467460	-1.64647879	8.33941505	5.06803493	2.39824520	10.81466235
20	0.19000000	9.10493812	0.02249536	6.43092984	9.76916434	-0.34169019	1.90290723	9.57114854	2.13375303	1.72321786	9.76486745	-0.25190556	1.21478455	9.56406301	-1.16425376	1.46915804	9.68260961	1.32884063	-0.68018005	5.28842999	-1.60635944	8.33724825	5.08478956	2.36751499	10.82820006
21	0.20000000	9.09856276	0.04769520	6.48410483	9.73841599	-0.38551412	1.92308786	9.56537272	2.03012758	1.68601057	9.76012492	-0.24539132	1.22417927	9.63788961	-0.96912460	1.47167637	9.61113936	1.26189956	-0.57944764	5.29230504	-1.63111495	8.35495030	5.06836773	2.39940032	10.78749638
22	0.21000000	9.13200144	0.01740738	6.41679914	9.75191056	-0.37887759	1.90370869	9.62052062	1.98506443	1.73486110	9.78382881	-0.25828213	1.23251923	9.72381875	-0.80895554	1.49522578	9.64090972	1.22547709	-0.52954285	5.29263348	-1.58913370	8.36282455	5.10847829	2.38751678	10.81210963
23	0.22000000	9.09100817	0.01489863	6.35145773	9.73589230	-0.40465396	1.90211017	9.62048594	2.01230157	1.71384799	9.75261433	-0.21679803	1.22278703	9.68656714	-0.76950299	1.48609531	9.70688986	1.23484704	-0.46660916	5.31140656	-1.62477958	8.29370756	5.08782087	2.38656111	10.81098736
24	0.23000000	9.08349660	0.01758266	6.34529617	9.74830152	-0.43907385	1.90035138	9.62725524	1.96603020	1.73162648	9.72374181	-0.20008764	1.20704658	9.66147078	-0.75200182	1.51547168	9.74238723	1.24196810	-0.48643781	5.30975609	-1.61311843	8.33923688	5.08442950	2.38751499	10.80935743
25	0.24000000	9.09021364	0.00956229	6.41988779	9.76537556	-0.43707769	1.88092137	9.62366746	1.94168302	1.74328552	9.77403306	-0.20448693	1.16912305	9.65140067	-0.82539661	1.58926303	9.74972100	1.20804014	-0.52215585	5.28933927	-1.63873048	8.34177802	5.05798700	2.40641754	10.82050973
26	0.25000000	9.11378626	0.02223234	6.38675859	9.78508595	-0.40795590	1.86914435	9.60817395	1.89254379	1.74992437	9.74287438	-0.23538563	1.13660084	9.69088409	-0.93391384	1.58466583	9.74343902	1.21154618	-0.64816384	5.28676334	-1.61097962	8.31834053	5.05110253	2.40863756	10.82378107
27	0.26000000	9.16300729	-0.00080792	6.44730826	9.79236550	-0.40875455	1.90616402	9.65496265	1.92541820	1.78498508	9.72987622	-0.25740004	1.13836713	9.65102150	-0.99908787	1.54386376	9.68112402	1.25472411	-0.70587934	5.25846664	-1.62271162	8.36160665	5.08311997	2.41103983	10.79631979
28	0.27000000	9.13696855	0.02306371	6.40988699	9.79837471	-0.33376808	1.91743383	9.64908297	1.97898944	1.78415630	9.73485472	-0.30711671	1.11043865	9.65281388	-0.97556747	1.50203504	9.65274551	1.31937464	-0.70120786	5.31092864	-1.59480334	8.36981776	5.05893855	2.37611604	10.79114330
